<!-- icon666.com - MILLIONS vector ICONS FREE -->
<svg fill="none" viewBox="0 0 24 24" xmlns="http://www.w3.org/2000/svg">
    <g clip-rule="evenodd" fill="#fff" fill-rule="evenodd">
        <path d="m12 3c.4142 0 .75.33579.75.75v11.1893l2.2197-2.2196c.2929-.2929.7677-.2929 1.0606 0s.2929.7677 0 1.0606l-3.5 3.5c-.2929.2929-.7677.2929-1.0606 0l-3.50003-3.5c-.29289-.2929-.29289-.7677 0-1.0606s.76777-.2929 1.06066 0l2.21967 2.2196v-11.1893c0-.41421.3358-.75.75-.75z"></path>
        <path d="m4 15.5c.41421 0 .75.3358.75.75v1c0 1.2426 1.00736 2.25 2.25 2.25h10c1.2426 0 2.25-1.0074 2.25-2.25v-1c0-.4142.3358-.75.75-.75s.75.3358.75.75v1c0 2.0711-1.6789 3.75-3.75 3.75h-10c-2.07107 0-3.75-1.6789-3.75-3.75v-1c0-.4142.33579-.75.75-.75z"></path>
    </g>
</svg>
